<?xml version="1.0" standalone="no"?><!DOCTYPE svg PUBLIC "-//W3C//DTD SVG 1.1//EN" "http://www.w3.org/Graphics/SVG/1.1/DTD/svg11.dtd"><svg t="1654258359972" class="icon" viewBox="0 0 1024 1024" version="1.1" xmlns="http://www.w3.org/2000/svg" p-id="1013" width="400" height="400" data-spm-anchor-id="a313x.7781069.0.i4" xmlns:xlink="http://www.w3.org/1999/xlink"><defs><style type="text/css">@font-face { font-family: feedback-iconfont; src: url("//at.alicdn.com/t/font_1031158_u69w8yhxdu.woff2?t=1630033759944") format("woff2"), url("//at.alicdn.com/t/font_1031158_u69w8yhxdu.woff?t=1630033759944") format("woff"), url("//at.alicdn.com/t/font_1031158_u69w8yhxdu.ttf?t=1630033759944") format("truetype"); }
</style></defs><path d="M388.914858 222.237062s-73.509182-64.961603-90.60434-70.09015c0 0-56.414023 29.06177-80.347246 41.02838 0 0-56.414023 49.57596-59.833055 58.123539 0 0 11.966611 8.547579-13.676127 30.771286 0 0-41.028381 32.480801-37.609349 10.257095 0 0-34.190317-35.899833-13.676127-46.156928l41.028381-22.223706s64.961603-61.542571 82.056761-78.63773c15.385643-17.095159 64.961603-82.056761 100.861436-47.866444 0 0 71.799666 32.480801 95.732888 63.252087 0 0 39.318865 13.676127 51.285476 25.642738l41.028381 20.51419s13.676127-92.313856 85.475793-75.218698c0 0 90.604341 41.028381 47.866444 111.118531 0 0-11.966611 10.257095-6.838064 20.51419 0 0 10.257095 8.547579 1.709516 10.257096 0 0 44.447412 5.128548 56.414023-1.709516 11.966611-6.838063 39.318865-18.804674 46.156929-20.514191 0 0-5.128548-6.838063 0-10.257095 0 0-6.838063-15.385643-1.709516-18.804674 0 0 0-15.385643 6.838063-15.385643 0 0 3.419032-10.257095 8.54758-8.547579l5.128547 1.709516s6.838063-18.804674 15.385643-8.54758c0 0 52.994992 25.642738 23.933222 59.833055 0 0-17.095159 15.385643-23.933222 30.771286 0 0-34.190317 34.190317-46.156928 35.899833 0 0-148.72788 0-172.661102 13.676127 0 0-32.480801 8.547579-44.447413 30.771285 0 0-18.804674 35.899833-66.671118 41.028381 0 0-23.933222 6.838063-23.933222 15.385643 0 0 44.447412 11.966611 58.123539 11.966611 13.676127 0 44.447412 5.128548 61.542571 1.709516 15.385643-3.419032 29.06177 0 37.609349 1.709515 8.547579 1.709516 25.642738 6.838063 35.899833 11.966611 0 0 92.313856-3.419032 150.437396 6.838064 56.414023 10.257095 87.185309 10.257095 100.861435 5.128547 15.385643-6.838063 35.899833-8.547579 35.899833-8.547579s-15.385643-11.966611 5.128548-15.385643c0 0 59.833055-30.771285 64.961603-35.899833 6.838063-5.128548 18.804674-32.480801 34.190317-30.771285 0 0 32.480801-3.419032 17.095158 44.447412 0 0-35.899833 73.509182-44.447412 90.604341-10.257095 18.804674-35.899833 56.414023-44.447412 52.994991 0 0-23.933222-29.06177-29.06177-30.771285-5.128548-1.709516-18.804674-1.709516-15.385643-6.838063 0 0-141.889816-15.385643-206.851419 8.547579 0 0-41.028381 15.385643-114.537562-13.676127 0 0-71.799666 6.838063-94.023372 18.804674 0 0-117.956594 41.028381-133.342238 37.609349 0 0 25.642738 22.223706 15.385643 150.437396 0 0-3.419032 73.509182-76.928214 20.51419 0 0-41.028381-17.095159-47.866444-35.899833 0 0-87.185309-76.928214-116.247078-80.347245 0 0-22.223706 1.709516-37.609349 0 0 0-15.385643-11.966611-30.771285-5.128548 0 0-58.123539 8.547579-32.480802-18.804674 0 0 68.380634-87.185309 85.475793-71.799666 0 0 15.385643 15.385643 18.804675 29.061769 1.709516 15.385643 10.257095 20.51419 23.933222 27.352254 13.676127 6.838063 90.604341 42.737896 100.861435 51.285476 0 0-17.095159-46.156928-13.676126-54.704508 0 0-51.285476-37.609349-41.028381-97.442404 0 0 15.385643-54.704508 52.994992-76.928213 0 0 10.257095-15.385643 22.223706-30.771286 11.966611-15.385643 51.285476-61.542571 73.509182-82.056761 17.095159-15.385643 64.961603-63.252087 56.414023-71.799666z" p-id="1014" fill="#3399ff" data-spm-anchor-id="a313x.7781069.0.i3" class="selected"></path></svg>